HIERARCHY
ROOT SpineBase
{
  OFFSET 0.000000 0.000000 0.000000
  CHANNELS 6 Xposition Yposition Zposition Zrotation Xrotation Yrotation
  JOINT SpineMid
  {
    OFFSET 0.000000 30.893644 0.000000
    CHANNELS 3 Zrotation Xrotation Yrotation
    JOINT SpineShoulder
    {
      OFFSET -0.039960 23.036086 -0.583588
      CHANNELS 3 Zrotation Xrotation Yrotation
      JOINT Neck
      {
        OFFSET -0.048250 7.665331 -0.507865
        CHANNELS 3 Zrotation Xrotation Yrotation
        JOINT Head
        {
          OFFSET -0.216081 9.283606 4.780034
          CHANNELS 3 Zrotation Xrotation Yrotation
          End Site
          {
            OFFSET 0 0 0
          }
        }
      }
      JOINT ShoulderLeft
      {
        OFFSET -9.962710 -7.332763 1.477265
        CHANNELS 3 Zrotation Xrotation Yrotation
        JOINT ElbowLeft
        {
          OFFSET 12.320225 -12.664321 -18.026559
          CHANNELS 3 Zrotation Xrotation Yrotation
          JOINT WristLeft
          {
            OFFSET 11.318613 -20.856032 -4.486085
            CHANNELS 3 Zrotation Xrotation Yrotation
            JOINT HandLeft
            {
              OFFSET 3.199636 -9.368768 -1.568066
              CHANNELS 3 Zrotation Xrotation Yrotation
              JOINT HandTipLeft
              {
                OFFSET 4.457728 -6.569878 -0.763893
                CHANNELS 3 Zrotation Xrotation Yrotation
                End Site
                {
                  OFFSET 0 0 0
                }
              }
              JOINT ThumbLeft
              {
                OFFSET -0.419762 -0.933274 -0.006126
                CHANNELS 3 Zrotation Xrotation Yrotation
                End Site
                {
                  OFFSET 0 0 0
                }
              }
            }
          }
        }
      }
      JOINT ShoulderRight
      {
        OFFSET 2.295537 -1.429455 -12.435852
        CHANNELS 3 Zrotation Xrotation Yrotation
        JOINT ElbowRight
        {
          OFFSET 5.133243 -22.398371 -8.590219
          CHANNELS 3 Zrotation Xrotation Yrotation
          JOINT WristRight
          {
            OFFSET 7.507199 -22.607179 -1.457436
            CHANNELS 3 Zrotation Xrotation Yrotation
            JOINT HandRight
            {
              OFFSET 1.975526 -4.981917 -0.142385
              CHANNELS 3 Zrotation Xrotation Yrotation
              JOINT HandTipRight
              {
                OFFSET 3.994451 -7.020677 -0.641916
                CHANNELS 3 Zrotation Xrotation Yrotation
                End Site
                {
                  OFFSET 0 0 0
                }
              }
              JOINT ThumbRight
              {
                OFFSET 1.029621 1.826685 -3.912521
                CHANNELS 3 Zrotation Xrotation Yrotation
                End Site
                {
                  OFFSET 0 0 0
                }
              }
            }
          }
        }
      }
    }
  }
  JOINT HipLeft
  {
    OFFSET -4.121813 0.636071 -5.365123
    CHANNELS 3 Zrotation Xrotation Yrotation
    JOINT KneeLeft
    {
      OFFSET 15.763027 -27.002003 -8.565873
      CHANNELS 3 Zrotation Xrotation Yrotation
      JOINT AnkleLeft
      {
        OFFSET -1.971940 -35.939176 -6.311463
        CHANNELS 3 Zrotation Xrotation Yrotation
        JOINT FootLeft
        {
          OFFSET -8.448305 -1.837697 -9.936114
          CHANNELS 3 Zrotation Xrotation Yrotation
          End Site
          {
            OFFSET 0 0 0
          }
        }
      }
    }
  }
  JOINT HipRight
  {
    OFFSET 3.568364 2.077674 -1.136172
    CHANNELS 3 Zrotation Xrotation Yrotation
    JOINT KneeRight
    {
      OFFSET 1.696772 -32.112799 -5.025430
      CHANNELS 3 Zrotation Xrotation Yrotation
      JOINT AnkleRight
      {
        OFFSET -3.132414 -32.985278 -0.037663
        CHANNELS 3 Zrotation Xrotation Yrotation
        JOINT FootRight
        {
          OFFSET -1.222641 -4.873906 -4.948044
          CHANNELS 3 Zrotation Xrotation Yrotation
          End Site
          {
            OFFSET 0 0 0
          }
        }
      }
    }
  }
}
MOTION
Frames: 9
Frame Time: 0.033333
59.835735 72.792736 330.367426 1.268495 3.436057 -49.322062 0.613154 -0.070502 49.346430 0.735563 -0.255804 0.150820 -15.124954 -1.951406 5.860147 0.000000 0.000000 0.000000 -5.611504 -4.840532 2.166701 12.361791 -9.357231 -9.934690 -17.976916 -11.411718 3.261869 7.262552 5.416142 -6.001819 0.000000 0.000000 0.000000 0.000000 0.000000 0.000000 -1.984451 -6.214611 -1.172071 1.848303 5.433866 1.270065 -34.222963 -67.371570 -54.141620 -55.358658 54.946387 72.019600 0.000000 0.000000 0.000000 0.000000 0.000000 0.000000 10.140508 -10.204327 43.759421 7.052818 18.535193 2.643833 -7.520540 -8.216863 0.790147 0.000000 0.000000 0.000000 0.054708 -25.483362 51.088687 13.601028 19.407095 -3.459772 -23.021915 13.872008 21.610486 0.000000 0.000000 0.000000
62.384531 73.430634 329.163039 1.357786 4.044776 -51.216747 0.655862 -0.176043 51.234119 0.917764 -0.230225 0.174613 -15.268499 -1.536882 5.786230 0.000000 0.000000 0.000000 -6.482353 -4.824732 3.618492 11.043349 -10.051191 -11.161632 -17.133818 -13.916505 1.758649 5.146321 5.112740 -6.726146 0.000000 0.000000 0.000000 0.000000 0.000000 0.000000 -2.763199 -8.311127 -1.408784 2.234267 7.030860 1.370335 -30.186631 -70.952608 -54.020267 -55.751356 51.712074 68.088292 0.000000 0.000000 0.000000 0.000000 0.000000 0.000000 10.847107 -13.009422 45.558222 9.446027 19.646394 2.469159 -6.223908 -9.447030 2.233227 0.000000 0.000000 0.000000 0.743109 -28.099165 53.291946 14.622416 19.508861 -3.689713 -23.189961 13.728249 23.105964 0.000000 0.000000 0.000000
64.392728 73.949523 328.359041 1.223392 4.152105 -51.476239 0.673706 -0.228169 51.492278 0.967065 -0.179560 0.172312 -15.907114 -0.300413 6.285596 0.000000 0.000000 0.000000 -5.402383 -3.323253 3.844226 8.478732 -12.498319 -11.438233 -20.545259 -17.351845 0.932283 8.143284 12.581935 -4.069949 0.000000 0.000000 0.000000 0.000000 0.000000 0.000000 -3.699367 -9.515102 -1.378557 3.096961 8.228006 1.191309 -18.823060 -69.946653 -43.972080 -48.489111 48.501799 57.018664 0.000000 0.000000 0.000000 0.000000 0.000000 0.000000 10.908252 -14.839189 45.764688 10.575728 20.311437 2.529512 -5.825003 -8.909290 2.245868 0.000000 0.000000 0.000000 0.350933 -29.496024 53.606385 15.088847 19.153120 -3.774767 -20.444886 12.755377 22.145047 0.000000 0.000000 0.000000
65.691608 74.084497 327.875980 -0.021103 4.101841 -49.689807 0.318091 -0.541702 49.684833 1.039580 -0.063255 0.107628 -13.646257 0.978413 6.249937 0.000000 0.000000 0.000000 -3.139117 -2.554108 3.977111 6.584481 -13.239996 -11.182099 -20.882551 -20.032706 -0.688629 8.049843 14.678062 -3.665651 0.000000 0.000000 0.000000 0.000000 0.000000 0.000000 -3.007322 -9.851169 -1.017200 4.795857 9.290018 0.934854 -11.477893 -69.038127 -36.849068 -55.975428 40.105599 62.159234 0.000000 0.000000 0.000000 0.000000 0.000000 0.000000 11.124141 -14.896099 43.803147 10.255955 20.495597 2.907810 -5.156815 -8.493818 2.076646 0.000000 0.000000 0.000000 -0.366183 -29.485634 51.647417 15.433908 18.733321 -3.841304 -19.880648 13.550341 22.443910 0.000000 0.000000 0.000000
66.942191 74.233981 327.400642 -1.454746 4.259756 -46.921173 0.054010 -0.582623 46.915467 0.649836 -0.128705 0.004583 -10.433902 2.511806 5.975340 0.000000 0.000000 0.000000 -0.125665 -2.059701 3.463177 5.304770 -13.631825 -10.233815 -27.017860 -23.983375 -2.543912 13.286253 16.786101 -6.129248 0.000000 0.000000 0.000000 0.000000 0.000000 0.000000 -2.113134 -8.941543 -0.213634 6.731421 7.401109 -0.087514 -7.767566 -67.349603 -32.622565 -54.219172 47.247924 61.237730 0.000000 0.000000 0.000000 0.000000 0.000000 0.000000 11.555574 -14.652151 40.831739 9.313509 20.058592 3.504335 -4.372590 -7.524187 0.624865 0.000000 0.000000 0.000000 -1.485291 -29.611464 48.557786 16.405851 18.467276 -4.092744 -19.015441 15.196037 21.932664 0.000000 0.000000 0.000000
67.599907 74.219777 327.229577 -3.193194 4.396484 -43.233304 -0.304624 -0.643542 43.230970 0.132850 -0.208876 -0.133804 -6.795743 3.127100 5.707064 0.000000 0.000000 0.000000 4.345272 -1.047000 2.198849 3.727286 -14.495901 -8.450269 -35.329072 -25.220431 -2.836585 19.902095 17.927793 -8.280706 0.000000 0.000000 0.000000 0.000000 0.000000 0.000000 -0.096586 -6.754552 0.827902 6.896484 3.410598 -1.055707 -4.484826 -65.216953 -29.665080 -47.201289 44.141904 52.078574 0.000000 0.000000 0.000000 0.000000 0.000000 0.000000 12.475998 -13.176385 36.920701 7.160687 18.864176 4.325423 -3.605591 -6.386594 -1.379861 0.000000 0.000000 0.000000 -2.837078 -29.054956 44.449502 17.474226 18.100976 -4.377287 -18.263304 17.182578 21.022298 0.000000 0.000000 0.000000
68.702808 74.497553 326.795805 -4.723628 4.865097 -39.907679 -0.473509 -0.517279 39.943946 0.239859 -0.065180 -0.178029 -4.315737 3.215866 5.312937 0.000000 0.000000 0.000000 7.964278 -0.726300 0.503773 2.424437 -15.862725 -6.632375 -43.293907 -23.348927 -0.122971 25.308613 13.498727 -12.182640 0.000000 0.000000 0.000000 0.000000 0.000000 0.000000 0.741643 -6.037705 1.531433 5.565324 -0.105956 -1.982089 -2.057562 -61.890424 -27.998678 -35.179790 38.168786 37.317488 0.000000 0.000000 0.000000 0.000000 0.000000 0.000000 13.124300 -12.960660 33.648070 6.410629 17.830271 4.631756 -3.088889 -5.051293 -3.900974 0.000000 0.000000 0.000000 -4.032985 -29.155052 40.711594 18.747310 17.855072 -4.719772 -17.014508 19.552025 19.679291 0.000000 0.000000 0.000000
69.730421 74.821683 326.400633 -5.675848 5.540086 -35.778557 -0.610753 -0.426759 35.862621 0.376227 0.056115 -0.191627 -2.896546 1.947907 5.006562 0.000000 0.000000 0.000000 11.674483 -0.876513 -2.248659 1.616314 -17.264706 -3.866658 -50.393833 -19.219315 5.602233 25.671637 6.247837 -14.751484 0.000000 0.000000 0.000000 0.000000 0.000000 0.000000 1.563883 -5.011781 2.118568 2.353819 -4.295791 -3.021533 -0.787968 -58.228822 -27.828119 -32.367908 33.515966 33.706530 0.000000 0.000000 0.000000 0.000000 0.000000 0.000000 13.239097 -13.316459 29.793283 5.927862 16.375260 4.712318 -2.751157 -3.464128 -6.967470 0.000000 0.000000 0.000000 -5.741063 -29.478767 35.982790 19.218095 17.682600 -4.844846 -14.876997 22.293572 17.825447 0.000000 0.000000 0.000000
70.460764 75.169744 326.119838 -6.170740 6.034463 -32.357841 -0.618755 -0.559781 32.462510 0.178373 -0.059274 -0.243117 -3.692868 2.630542 5.883696 0.000000 0.000000 0.000000 14.198025 -0.480673 -3.744795 0.970328 -18.046051 -2.199095 -52.292662 -11.945210 12.710207 21.325394 -3.455430 -17.616876 0.000000 0.000000 0.000000 0.000000 0.000000 0.000000 4.093668 -4.551591 1.856076 -3.172480 -7.545787 -3.554152 -3.640777 -54.198776 -30.019795 -29.621686 32.046491 32.928769 0.000000 0.000000 0.000000 0.000000 0.000000 0.000000 12.643011 -13.772981 26.808590 6.123700 14.927055 4.427407 -2.613360 -2.417954 -7.925736 0.000000 0.000000 0.000000 -6.949687 -29.564903 32.087395 18.904080 17.815680 -4.760900 -13.919258 23.203104 17.299963 0.000000 0.000000 0.000000
